<svg xmlns="http://www.w3.org/2000/svg" width="647" height="291" viewBox="0 0 647 291">
  <g id="Group_725" data-name="Group 725" transform="translate(-953 -629)">
    <text id="Spotlight_Experience" data-name="Spotlight 
Experience" transform="translate(953 748.233)" fill="#fff" font-size="90" font-family="RocGrotesk-WideBold, Roc Grotesk" font-weight="700" letter-spacing="0.03em"><tspan x="0" y="0">Spotlight </tspan><tspan x="0" y="94">Experience</tspan></text>
    <g id="Logo" transform="translate(955.447 629)">
      <g id="Group_523" data-name="Group 523" transform="translate(142.07 258.983)">
        <path id="Path_1510" data-name="Path 1510" d="M345.95,460.439c0-5.872,3.675-10.068,9.668-10.068,4.115,0,6.632,1.678,7.351,4.274h.04v-11.9h3.2v27.686h-3.2c.12-1.758.16-3.516.2-5.273h-.08c-.759,3.4-3.4,5.593-7.79,5.593C349.625,470.746,345.95,466.591,345.95,460.439Zm17.059.36v-1c0-4-2.757-6.552-7.112-6.552-4.115,0-6.752,3.076-6.752,7.191,0,4.394,2.637,7.431,6.712,7.431C360.212,467.87,363.009,465.114,363.009,460.8Z" transform="translate(-345.95 -442.741)" fill="#fff"/>
        <path id="Path_1511" data-name="Path 1511" d="M423.055,446.828h3.436v4.036h-3.436Zm.12,6.552h3.2v19.736h-3.2Z" transform="translate(-396.684 -445.43)" fill="#fff"/>
        <path id="Path_1512" data-name="Path 1512" d="M448.414,478.515h2.956c0,2.636,1.6,4.195,5.713,4.195,4.075,0,6.033-1.238,6.033-3.356a2.041,2.041,0,0,0-1.239-2.038,21.7,21.7,0,0,0-5.433-.919c-3.236-.28-5.193-.679-6.392-1.558a4.565,4.565,0,0,1-1.638-3.676c0-3.715,3.4-6.112,8.669-6.112,5.913,0,8.39,2.6,8.39,7.031h-2.956c-.04-2.956-1.8-4.315-5.313-4.315-3.4,0-5.593,1.239-5.593,3.2a2.108,2.108,0,0,0,1.278,2.237,25.718,25.718,0,0,0,5.513.919c3.076.32,4.594.6,5.953,1.359a4.263,4.263,0,0,1,1.957,3.755c0,3.875-3.2,6.193-9.188,6.193C450.491,485.426,448.414,482.31,448.414,478.515Z" transform="translate(-413.37 -457.421)" fill="#fff"/>
        <path id="Path_1513" data-name="Path 1513" d="M511.751,474.891c0-6.233,3.755-10.187,9.668-10.187,5.273,0,8.669,3.2,8.669,8.23h-2.956c-.04-3.276-2.237-5.354-5.673-5.354-3.955,0-6.512,2.836-6.512,7.311s2.477,7.311,6.312,7.311c3.6,0,5.913-2.038,5.953-5.274h2.956c0,4.954-3.516,8.15-8.989,8.15C515.427,485.079,511.751,481.124,511.751,474.891Z" transform="translate(-455.045 -457.192)" fill="#fff"/>
        <path id="Path_1514" data-name="Path 1514" d="M578.943,478.17V465.985h3.2v11.626c0,3.4,2.237,5.553,5.993,5.553,4.594,0,7.551-3.076,7.551-8.27v-8.909h3.2v19.736h-3.2c.08-1.318.16-3.8.16-5.793h-.04c-.839,3.716-3.635,6.112-8.549,6.112C582.1,486.04,578.943,482.964,578.943,478.17Z" transform="translate(-499.256 -458.035)" fill="#fff"/>
        <path id="Path_1515" data-name="Path 1515" d="M649.439,478.515H652.4c0,2.636,1.6,4.195,5.713,4.195,4.075,0,6.033-1.238,6.033-3.356a2.041,2.041,0,0,0-1.238-2.038,21.71,21.71,0,0,0-5.433-.919c-3.236-.28-5.193-.679-6.392-1.558a4.564,4.564,0,0,1-1.638-3.676c0-3.715,3.4-6.112,8.669-6.112,5.913,0,8.39,2.6,8.39,7.031h-2.956c-.04-2.956-1.8-4.315-5.313-4.315-3.4,0-5.593,1.239-5.593,3.2a2.107,2.107,0,0,0,1.278,2.237,25.722,25.722,0,0,0,5.513.919c3.076.32,4.594.6,5.953,1.359a4.263,4.263,0,0,1,1.958,3.755c0,3.875-3.2,6.193-9.189,6.193C651.516,485.426,649.439,482.31,649.439,478.515Z" transform="translate(-545.641 -457.421)" fill="#fff"/>
        <path id="Path_1516" data-name="Path 1516" d="M712.548,478.515H715.5c0,2.636,1.6,4.195,5.713,4.195,4.075,0,6.033-1.238,6.033-3.356a2.042,2.042,0,0,0-1.238-2.038,21.716,21.716,0,0,0-5.434-.919c-3.236-.28-5.193-.679-6.392-1.558a4.564,4.564,0,0,1-1.638-3.676c0-3.715,3.4-6.112,8.67-6.112,5.913,0,8.39,2.6,8.39,7.031h-2.956c-.04-2.956-1.8-4.315-5.313-4.315-3.4,0-5.593,1.239-5.593,3.2a2.108,2.108,0,0,0,1.278,2.237,25.722,25.722,0,0,0,5.513.919c3.076.32,4.594.6,5.953,1.359a4.262,4.262,0,0,1,1.958,3.755c0,3.875-3.2,6.193-9.189,6.193C714.626,485.426,712.548,482.31,712.548,478.515Z" transform="translate(-587.166 -457.421)" fill="#fff"/>
        <path id="Path_1517" data-name="Path 1517" d="M780.275,446.828h3.436v4.036h-3.436Zm.12,6.552h3.2v19.736h-3.2Z" transform="translate(-631.729 -445.43)" fill="#fff"/>
        <path id="Path_1518" data-name="Path 1518" d="M876.946,465.37h3.2l-.08,5.314h.04c1.078-3.436,3.835-5.633,8.549-5.633,5.193,0,8.27,3,8.27,7.711v12.345h-3.2V473.441c0-3.356-1.918-5.513-6.153-5.513-4.514,0-7.431,2.757-7.431,7.471v9.708h-3.2Z" transform="translate(-695.337 -457.421)" fill="#fff"/>
        <path id="Path_1519" data-name="Path 1519" d="M1025.832,465.872h-.04c0,1.558.08,3.516.16,4.555h-3.2V442.741h3.2v9.468c0,.8-.04,2.4-.08,3.356h.041c.878-3.156,3.755-5.193,7.99-5.193,5.673,0,9.149,3.835,9.149,9.828,0,6.432-3.556,10.547-9.069,10.547C1029.508,470.746,1026.671,468.829,1025.832,465.872Zm14.023-5.593c0-4.275-2.478-7.032-6.552-7.032-4.474,0-7.351,2.877-7.351,7.351v1.039c0,3.8,2.836,6.232,7.231,6.232C1037.258,467.87,1039.855,464.914,1039.855,460.279Z" transform="translate(-791.278 -442.741)" fill="#fff"/>
        <path id="Path_1520" data-name="Path 1520" d="M1158.7,475.613l-7.431-9.628h4.115l5.833,7.751,5.713-7.751h3.8l-7.471,9.668,7.831,10.068h-4.115l-6.152-8.11-5.953,8.11h-3.915Z" transform="translate(-875.628 -458.035)" fill="#fff"/>
        <path id="Path_1521" data-name="Path 1521" d="M1095.056,481.759l.244.088,16-7.49.089-.244-7.491-16-.244-.089-16,7.49-.088.244Z" transform="translate(-833.922 -452.55)" fill="#fff"/>
        <path id="Path_1522" data-name="Path 1522" d="M805.575,483.1l.216.153,17.8-3.04.153-.216-3.04-17.8-.217-.153-17.8,3.04-.153.216Z" transform="translate(-646.376 -455.446)" fill="#fff"/>
      </g>
      <text id="by" transform="translate(91.553 283)" fill="#fff" font-size="34" font-family="RocGrotesk-Light, Roc Grotesk" font-weight="300" letter-spacing="0.016em"><tspan x="0" y="0">by</tspan></text>
      <text id="The" transform="translate(-0.447 30)" fill="#fff" font-size="40" font-family="RocGrotesk-Light, Roc Grotesk" font-weight="300" letter-spacing="0.016em"><tspan x="0" y="0">The</tspan></text>
    </g>
  </g>
</svg>
